<svg xmlns="http://www.w3.org/2000/svg" width="118" height="104">
  <path style="fill:#0f2451; stroke:none;" d="M19 47L42 47C43.0825 37.1171 53.4068 30.4243 62.9961 33.7029C68.839 35.7006 73.0598 41.4126 75 47L98 47C96.3509 38.1539 94.3694 29.166 88.1134 22.2855C72.1685 4.74866 42.8818 5.7478 27.554 23.4244C21.1828 30.7719 21.0989 38.1841 19 47z"/>
  <path style="fill:#0f2451; stroke:none;" d="M56.0532 41.784C46.1503 45.0496 50.8481 59.3182 60.8951 56.4128C69.8723 53.8167 65.1266 38.7919 56.0532 41.784z"/>
  <path style="fill:#0f2451; stroke:none;" d="M19 52C20.7121 65.5469 25.8308 76.7712 38.2863 83.7029C63.1255 97.5264 96.396 81.1055 97 52C90.9133 52 82.0733 50.3558 76.3441 52.5139C73.4773 53.5938 73.0804 56.6881 71.419 58.9105C69.8984 60.9446 67.6977 62.679 65.5756 64.0571C56.4059 70.0122 44.4004 61.2052 42 52L19 52z"/>
</svg>